<?xml version="1.0" encoding="utf-8"?>
<!-- Generator: Adobe Illustrator 23.0.0, SVG Export Plug-In . SVG Version: 6.00 Build 0)  -->
<svg version="1.1" id="Layer_1" xmlns="http://www.w3.org/2000/svg" xmlns:xlink="http://www.w3.org/1999/xlink" x="0px" y="0px"
	 viewBox="0 0 203 203" style="enable-background:new 0 0 203 203;" xml:space="preserve">
<style type="text/css">
	.st0{fill:#424242;}
	.st1{fill:#6C6C6C;}
	.st2{fill:#575757;}
	.st3{fill:#787878;}
</style>
<path class="st0" d="M203,203H0V0h203V203z"/>
<path class="st1" d="M101.2,94.4c-13.8,0-24.9,11.1-24.9,24.9s11.2,24.9,24.9,24.9s24.9-11.1,24.9-24.9
	C126.1,105.6,114.9,94.4,101.2,94.4z"/>
<path class="st2" d="M97.8,147.1v21.3h2.6v-21.1C99.6,147.3,98.7,147.2,97.8,147.1z"/>
<path class="st2" d="M104.7,147.1c-0.9,0.1-1.8,0.2-2.6,0.2v21.1h2.6V147.1z"/>
<path class="st2" d="M76.4,163.6c-5,0-9-4-9-9s4-9,9-9c4.9,0,9,4,9,9S81.3,163.6,76.4,163.6z M125.4,163.6c-5,0-9-4-9-9s4-9,9-9
	s9,4,9,9S130.4,163.6,125.4,163.6z M75.4,39.5v-1.6h3.7v1.6H75.4z M81.2,39.5v-1.6h3.7v1.6H81.2z M75.4,35.3v-1.6h3.7v1.6H75.4z
	 M81.2,35.3v-1.6h3.7v1.6H81.2z M75.4,31v-1.6h3.7V31H75.4z M81.2,31v-1.6h3.7V31H81.2z M87,31v-1.6h19.3v13.8v48.6
	c13,2.4,22.8,13.8,22.8,27.5c0,13.7-9.8,25.1-22.8,27.5v21.6h5.9c0.6,0,1.1,0.5,1.1,1c0,0.6-0.5,1.1-1.1,1.1H90.1
	c-0.6,0-1.1-0.5-1.1-1.1c0-0.6,0.5-1,1.1-1h6.2v-21.5c-13.1-2.3-23-13.8-23-27.5c0-13.8,10-25.2,23-27.5V44.6v-5.1H87v-1.6h10.8v6.7
	v47c0.9-0.1,1.8-0.2,2.6-0.2V44.6v-9.3H87v-1.6h15v10.9v46.9c0.9,0,1.8,0.1,2.6,0.2V44V31H87z M86,17.7c-1.2,0-2.1,0.9-2.1,2.1
	c0,0.8,0.4,1.5,1.1,1.8v2.7h-3.7v-2.7c0.6-0.4,1.1-1,1.1-1.8c0-1.2-0.9-2.1-2.1-2.1S78,18.6,78,19.8c0,0.8,0.4,1.5,1,1.8v2.7h-3.7
	v-2.7c0.6-0.4,1-1,1-1.8c0-1.2-0.9-2.1-2.1-2.1c-1.2,0-2.1,0.9-2.1,2.1c0,0.8,0.4,1.5,1,1.8v2.7h-0.4c-3.8,0-7.1,2.1-8.8,5.1h9.2V31
	h-9.9c0.1-0.3,0.2-0.5,0.3-0.8c-0.5,1.1-0.8,2.2-0.9,3.4h10.5v1.6H62.8c0.1,1.2,0.4,2.4,0.9,3.4c-0.1-0.3-0.2-0.5-0.3-0.8h9.9v1.6
	h-9.2c1.7,3.1,5,5.1,8.8,5.1h0.4V47c-0.6,0.4-1,1-1,1.8c0,1.2,0.9,2.1,2.1,2.1s2.1-0.9,2.1-2.1c0-0.8-0.4-1.5-1.1-1.8v-2.4h3.7V47
	c-0.6,0.4-1.1,1-1.1,1.8c0,1.2,0.9,2.1,2.1,2.1c1.2,0,2.1-0.9,2.1-2.1c0-0.8-0.4-1.5-1.1-1.8v-2.4h3.7V47c-0.6,0.4-1.1,1-1.1,1.8
	c0,1.2,0.9,2.1,2.1,2.1c1.2,0,2.1-0.9,2.1-2.1c0-0.8-0.4-1.5-1-1.8v-2.4h4.1v23.9c0,1.5-0.8,2.8-2.2,3.5
	c-20.8,9.7-36.1,41.9-36.1,64.4c0,26.8,21.7,48.5,48.5,48.5c26.8,0,48.5-21.7,48.5-48.5c0-22.5-15.3-54.7-36.1-64.4
	c-1.3-0.6-2.2-2-2.2-3.5v-34c0-5.6-4.5-10.2-10.2-10.2h0h0H87v-2.7c0.6-0.4,1.1-1,1.1-1.8C88.1,18.6,87.1,17.7,86,17.7z"/>
<path class="st3" d="M125.4,145.7c-5,0-9,4-9,9s4,9,9,9s9-4,9-9C134.4,149.7,130.4,145.7,125.4,145.7z"/>
<path class="st3" d="M76.4,145.7c-5,0-9,4-9,9s4,9,9,9c4.9,0,9-4,9-9C85.3,149.7,81.3,145.7,76.4,145.7z"/>
</svg>
